<svg xmlns="http://www.w3.org/2000/svg" viewBox="0 0 649.8 214.1">
    <path d="M640.8 4.5h-30.5c-5 0-11.9 2.9-15.4 6.4l-45.8 45.8c-3.5 3.5-9.2 3.5-12.7 0l-45.8-45.8c-3.5-3.5-10.4-6.4-15.4-6.4h-30.5c-5 0-9 4.1-9 9v55.6C420.4 28.7 381.4 0 335.7 0c-59 0-106.9 47.8-107 106.7 0 32.3-26.2 58.5-58.5 58.5s-58.5-26.2-58.5-58.5c0-28.9 20.9-52.8 48.4-57.7 3.3-.6 6.7-.9 10.1-.9 18.4 0 32.1 8.8 32.1 8.8 4.4 2.7 8.7 1.5 11.5-2.8L228.1 28c2.4-4.3.9-10.1-3.2-12.9 0 0-23-15.2-55-15.2-3.3 0-6.5.2-9.7.4l-.8.1c-46 4.6-83.5 38.2-93.7 82.4H48.5V13.5c0-5-4.1-9-9-9H9c-5 0-9 4.1-9 9v187c0 5 4.1 9 9 9h30.5c5 0 9-4.1 9-9v-69.3h17.4c11.1 47.3 53.5 82.5 104.2 82.5 33.3 0 63.1-15.2 82.7-39.1l.1.1c15.1-18.5 24.2-42.1 24.2-67.8 0-32.3 26.2-58.5 58.6-58.5 32.3 0 58.5 26.2 58.5 58.5s-26.2 58.5-58.5 58.5c-23.3 0-43.3-13.6-52.8-33.2-1.5 6.7-3.6 13.3-6.3 19.6-4.5 10.7-10.5 20.5-18 29.3 19.5 20.2 46.8 32.7 77 32.7 45.7 0 84.8-28.7 100.1-69.1v55.6c0 5 4.1 9 9 9h30.5c5 0 9-4.1 9-9V82.1c0-5 2.9-6.1 6.4-2.6l45.8 45.8c3.5 3.5 9.2 3.5 12.7 0L595 79.4c3.5-3.5 6.4-2.3 6.4 2.6v118.5c0 5 4.1 9 9 9h30.5c5 0 9-4.1 9-9v-187c-.1-4.9-4.1-9-9.1-9z" fill="currentColor"></path>
</svg>